<svg width="40" height="40" viewBox="0 0 40 40" fill="none" xmlns="http://www.w3.org/2000/svg">
<rect width="40" height="40" rx="8" fill="#f97316"/>
<mask id="mask0_0_22048" style="mask-type:luminance" maskUnits="userSpaceOnUse" x="0" y="0" width="40" height="40">
<rect width="40" height="40" rx="8" fill="white"/>
</mask>
<g mask="url(#mask0_0_22048)">
</g>
<path fill-rule="evenodd" clip-rule="evenodd" d="M14.3999 20.0002L-nan -nanL14.3999 20.0002C13.0799 20.0002 12 18.9202 12 17.6004C12 16.2801 13.0799 15.2002 14.3999 15.2002C15.7199 15.2002 16.8 16.2801 16.8 17.6004C16.8 18.9202 15.7199 20.0002 14.3999 20.0002" fill="white"/>
<path fill-rule="evenodd" clip-rule="evenodd" d="M34.4 14.676C34.4 10.5643 30.9799 7.2002 26.8 7.2002H26.7998C22.62 7.2002 19.2 10.5643 19.2 14.676V16.6762C19.2 21.4393 23.4462 25.2145 27.7568 23.1882C31.2121 21.5639 34.3993 18.9167 34.4 14.677C34.4 14.6767 34.4 14.6763 34.4 14.676" fill="white"/>
<path fill-rule="evenodd" clip-rule="evenodd" d="M11.2001 29.7675C10.3906 29.7675 9.72852 29.1524 9.72852 28.4009C9.72852 27.6491 10.3906 27.0343 11.2001 27.0343C12.0094 27.0343 12.6715 27.6491 12.6715 28.4009C12.6715 29.1524 12.0094 29.7675 11.2001 29.7675ZM-nan -nanL5.59985 28.3994C5.59985 28.3998 5.59985 28.4003 5.59985 28.4006C5.59985 31.2609 8.11976 33.6012 11.1999 33.6012C14.2798 33.6012 16.7999 31.2609 16.7999 28.4006V28.4006C16.7999 24.3363 13.1331 21.0251 9.54808 22.9399C7.39544 24.0896 5.60044 25.8212 5.59985 28.3994L-nan -nanL-nan -nanZ" fill="white"/>
</svg>
